# xmcd CD database file
# Copyright (C) 1997 Ti Kan
# 
# Track frame offsets:
#     183
#     17098
#     33750
#     47740
#     56600
#     63528
#     79698
#     96725
#     113878
#     133075
#     149498
#     163665
#     179330
# 
# Disc length: 2574 seconds
# 
# Revision: 1
# Processed by: cddbd v1.4b41PL1 Copyright (c) Steve Scherf et al.
# Submitted via: DiscPlay 4.0.3
# 
DISCID=b90a0c0d
DTITLE=Various Artist - Happy Trails:  Under the Western Sky
DYEAR=1900
DGENRE=
TTITLE0=Happy Trails
TTITLE1=Deep In The Heart Of Texas
TTITLE2=Jingle, Jangle, Jingle
TTITLE3=Cattle Call
TTITLE4=Take Me Back To My Boots And Saddle
TTITLE5=I Ride An Old Paint
TTITLE6=You Are My Sunshine
TTITLE7=Don't Fence Me In
TTITLE8=There's A New Moon Over My Shoulder
TTITLE9=South Of The Border (Down Mexico Way)
TTITLE10=Get Along Little Doggies
TTITLE11=Someday You'll Want Me To Want You
TTITLE12=The Yellow Rose Of Texas
EXTD=
EXTT0=
EXTT1=
EXTT2=
EXTT3=
EXTT4=
EXTT5=
EXTT6=
EXTT7=
EXTT8=
EXTT9=
EXTT10=
EXTT11=
EXTT12=
PLAYORDER=
